<svg xmlns="http://www.w3.org/2000/svg" width="254" height="211" viewBox="0 0 254 211">
    <g fill="none" fill-rule="evenodd">
        <path fill="#FFF" fill-rule="nonzero" d="M124.028 22.927c-9.094-1.429-17.6-5.817-26.184-9.529-9.548-4.107-19.287-7.404-29.159-9.87C58.168.894 47.327-.823 36.784.405 26.24 1.632 15.953 6.046 9.228 14.118-2.165 27.808-1.203 48.56 2.559 66.85c4.465 21.701 12.186 43.153 24.823 61.636 8.982 13.137 20.253 24.51 31.423 35.8 6.315 6.372 12.689 12.787 20.065 17.796 6.862 4.654 14.438 7.991 21.96 11.28 8.033 3.517 16.086 7.052 24.38 9.74 26.472 8.58 54.34 8.311 81.588 7.547 9.59-.265 19.614-.703 27.658-5.61 6.269-3.835 10.737-10.05 14.121-16.676 4.429-8.682 7.225-19.042 4.08-28.724-4.636-14.282-20.526-22.695-25.816-36.76-6.779-18.048 6.388-37.125 2.662-55.91-1.55-7.816-5.92-14.88-10.55-21.469-11.047-15.708-25.729-30.015-45.462-27.925-16.707 1.765-31.945 8.107-49.463 5.351z"/>
        <g fill-rule="nonzero" transform="translate(122 38)">
            <path fill="#5500D3" d="M23.602 71.045c-.027-1.16-.349-2.132-.81-2.668l-.365 1.454v-1.747c-.16-.099-.348-.144-.535-.127-.897.083-1.59 1.608-1.55 3.403.042 1.796.804 3.186 1.702 3.102.897-.083 1.6-1.614 1.558-3.417z"/>
            <path fill="#000" d="M23.418 71.842c-.382.086-.753.329-1.135.377-.381.047-.8-.14-1.04-.746-.13-.326-.196-.738-.306-1.096-.084-.291-.226-.562-.416-.795-.133.548-.193 1.113-.177 1.678.042 1.855.815 3.289 1.725 3.202.764-.072 1.381-1.198 1.535-2.651-.063.007-.125.017-.186.031z" opacity=".1"/>
            <path fill="#5500D3" d="M99.692 58.65c-.782-.761-1.66-1.217-2.342-1.28l.7 1.214-1.151-1.19c-.18.038-.341.129-.463.26-.579.65-.056 2.125 1.166 3.315 1.223 1.19 2.682 1.634 3.259.992.576-.641.047-2.128-1.17-3.312z"/>
            <path fill="#000" d="M100.831 59.149c-.23.323-.344.751-.602 1.049-.258.297-.71.456-1.323.196-.332-.14-.673-.388-1.008-.564-.27-.15-.571-.244-.882-.279.286.482.64.924 1.052 1.314 1.345 1.286 2.95 1.766 3.585 1.073.53-.581.211-1.801-.699-2.94-.045.048-.086.098-.123.15z" opacity=".1"/>
            <path fill="#FFC1C7" d="M39.918 63.069l-3.928-2.364s-9.493-1.358-8.184-6.108c1.31-4.75 7.858 0 7.858 0l4.254 3.034v5.438z"/>
            <path fill="#000" d="M39.918 63.069l-3.928-2.364s-9.493-1.358-8.184-6.108c1.31-4.75 7.858 0 7.858 0l4.254 3.034v5.438z" opacity=".1"/>
            <path fill="#FFC1C7" d="M54.6 39.863s-9.906 7.21-9.906 4.806c0-1.436-1.729-5.868-3.11-9.167-.914-2.186-1.666-3.878-1.666-3.878l10.237-2.746c-.315 1.664-.276 3.376.114 5.024.604 2.483 2.16 4.626 4.331 5.96zM34.55 98.888s-7.747 17.19-5.054 23.592c0 0-8.422 25.617-11.118 26.626-2.695 1.01 6.739 2.697 6.739 2.697s11.112-14.83 11.781-26.627c.67-11.797 12.808-23.925 12.808-23.925L34.55 98.888zM52.153 106.475s4.32 13.977 9.973 17.97c0 0 11.637 19.297 9.962 25.285 0 0 6.649 1 6.983 0 0 0-2.994-20.962-10.307-29.278-7.314-8.317-3.971-18.308-3.971-18.308l-12.64 4.331z"/>
            <path fill="#BE6C6C" d="M22.841 149.492s-4.058-3.449-7.1-.69c-3.043 2.76-8.456 2.07-12.515.69-4.058-1.38-3.718 2.07 5.75 6.552 9.47 4.482 14.88 5.528 14.88 5.528s1.354-5.528 1.354-6.898.841-3.959.841-3.959l-3.21-1.223zM75.979 149.187s-3.985-2.348-4.65 2.022c-.664 4.37-10.296 7.078-10.296 7.078s-4.65 4.38 9.632 3.024c14.282-1.355 13.285-4.043 13.285-4.043l-4.523-8.722-3.448.641z"/>
            <path fill="#3F3D56" d="M39.93 84.14s-10.475 14.753-6.42 16.429c4.053 1.675 3.717-2.683 7.768 2.011 4.052 4.694 14.528 2.337 15.88 1.341 1.351-.995 4.73-5.373 7.432-5.028 2.703.346-4.398-17.1-4.398-17.1L39.93 84.14z"/>
            <path fill="#000" d="M48.932 32.464c-1.398 1.387-2.386 3.74-4.448 3.74-1.02.002-2.03-.21-2.973-.622-.874-2.213-1.593-3.924-1.593-3.924l9.788-2.78c-.319 1.99-1.109 2.172-.774 3.586z" opacity=".1"/>
            <ellipse cx="44.812" cy="27.25" fill="#FFC1C7" rx="8.157" ry="8.141"/>
            <path fill="#F2F2F2" d="M49.487 38.647s-3.526 3.52-5.163 3.768c-1.638.247-7.763 10.618-6.06 18.983 1.704 8.366-2.04 25.764-.338 26.766 1.7 1.003 28.91-3.679 28.91-3.679L49.486 38.647z"/>
            <path fill="#6C63FF" d="M52.858 36.355s-5.989-2.022-7.985 8.764c-1.996 10.787-4.658 1.687-4.658 15.504 0 13.816-1 18.878.666 30.675 1.664 11.797 2.993 11.8.996 15.844-1.996 4.045 21.294 3.035 26.951-4.72 5.658-7.753-1.664-36.742-4.658-41.125-2.993-4.383-2.995-17.864-5.332-21.235-1.411-2.01-3.571-3.349-5.98-3.707z"/>
            <path fill="#2F2E41" d="M53.139 102.144l-2.96-3.7-9.446-45.051 6.35-11.844c1.088-2.032 3.105-3.402 5.397-3.665 2.28-.28 4.55.593 6.053 2.327 9.19 10.457 13.803 42.881 13.993 44.257l.02.13-.932 2.422-4.89 10.952-13.585 4.172zm-2.028-4.137l2.384 2.979 12.489-3.849 4.694-10.513.836-2.156c-.331-2.276-5.027-33.7-13.737-43.608-1.306-1.475-3.25-2.218-5.208-1.989-1.957.23-3.678 1.402-4.606 3.139l-6.175 11.525 9.323 44.472z"/>
            <path fill="#6C63FF" d="M32.314 57.37l-8.54-7.876c-.19-.178-.226-.473-.084-.694l.105-.166c.075-.12.196-.198.332-.215.137-.017.273.031.371.13l7.786 7.48c.18.17.287.41.292.664.006.254-.09.499-.262.678z"/>
            <path fill="#192534" d="M32.411 57.37l-8.634-8.073c-.193-.182-.23-.484-.086-.71l.107-.171 8.592 8.1c.115.108.182.26.186.423.004.161-.056.318-.165.432z"/>
            <path fill="#FFC1C7" d="M58.486 58.706s-12.454-1.005-14.809-5.377c-2.354-4.372-8.415-2.013-6.73 0 1.683 2.013 1.346 6.71 6.057 7.047 4.712.336 16.49 2.693 16.49 2.693l-1.008-4.363z"/>
            <path fill="#2F2E41" d="M71.957 85.049s-8.369.67-10.377 9.384c-2.008 8.713-11.044 4.358-11.044 4.358s-1.005 22.789 13.721 17.093c14.727-5.696 18.076-16.423 18.076-17.764 0-1.34-10.04-9.383-10.376-13.071z"/>
            <path fill="#000" d="M51.205 100.68s9.02 4.418 11.033-4.416c1.911-8.416 9.58-9.432 10.307-9.51-.313-.521-.52-1.101-.608-1.705 0 0-8.361.68-10.367 9.514-2.007 8.835-11.034 4.419-11.034 4.419s-.326 7.542 2.137 12.931c-1.732-5.145-1.468-11.233-1.468-11.233zM82.26 98.074c.04-.16.064-.325.073-.49 0-1.113-7.43-6.992-9.788-10.907.5 3.024 7.404 8.794 9.715 11.397z" opacity=".1"/>
            <path fill="#2F2E41" d="M34.883 21.52c-.466 1.462 1.042 2.94 2.564 3.093 1.522.154 2.997-.575 4.39-1.226 1.394-.652 2.951-1.262 4.44-.866 1.632.43 2.718 1.946 3.443 3.459.633 1.323 1.094 2.722 1.373 4.162.298 1.541.436 3.236 1.496 4.4 1.06 1.164 2.82 1.478 4.429 1.471 1.608-.007 3.235-.233 4.784.163 3.077.801 4.981 3.862 6.079 6.835 1.098 2.973 1.757 6.21 3.745 8.685 1.657 2.067 4.074 3.378 6.496 4.465 1.221.547 2.487 1.057 3.82 1.183 1.333.126 2.764-.184 3.73-1.097 1.088-1.02 1.437-2.574 1.733-4.032.431-2.113.863-4.285.506-6.415-.466-2.794-2.263-5.25-2.676-8.055-.4-2.728.543-5.482.448-8.238-.161-4.614-3.562-8.94-8.02-10.203-1.632-.466-3.345-.55-4.91-1.164-2.043-.813-3.616-2.447-5.285-3.874-3.988-3.403-8.75-5.78-13.87-6.92-3.435-.762-7.5-.774-9.928 1.761-.986 1.032-1.632 2.426-2.89 3.115-.646.356-1.387.484-2.082.724-3.43 1.178-5.402 5.447-4.071 8.809"/>
            <path fill="#000" d="M84.006 54.002c-1.335-.126-2.603-.637-3.826-1.185-2.425-1.089-4.844-2.402-6.506-4.473-1.991-2.479-2.654-5.72-3.751-8.701-1.097-2.98-3.007-6.045-6.088-6.847-1.553-.406-3.189-.17-4.793-.164-1.603.007-3.35-.289-4.435-1.474-1.085-1.184-1.2-2.863-1.499-4.407-.278-1.443-.74-2.844-1.375-4.17-.725-1.516-1.818-3.032-3.447-3.466-1.492-.396-3.051.215-4.447.868s-2.862 1.383-4.398 1.229c-1.536-.154-3.035-1.633-2.568-3.1l-.233.234c-.503-1.32-.558-2.767-.16-4.121-1.976 1.854-2.861 4.92-1.853 7.463l.234-.234c-.467 1.465 1.043 2.946 2.568 3.1 1.524.154 3.002-.576 4.397-1.23 1.396-.652 2.956-1.263 4.447-.867 1.634.432 2.722 1.95 3.448 3.466.634 1.326 1.096 2.727 1.375 4.17.299 1.544.437 3.241 1.499 4.407 1.062 1.167 2.824 1.481 4.435 1.474 1.61-.007 3.24-.233 4.793.164 3.081.802 4.988 3.869 6.088 6.847 1.1 2.978 1.76 6.222 3.75 8.701 1.66 2.07 4.081 3.384 6.507 4.473 1.223.548 2.49 1.059 3.826 1.185 1.335.126 2.768-.184 3.735-1.099.821-.77 1.223-1.847 1.498-2.957-.965.588-2.098.839-3.221.714z" opacity=".1"/>
            <path fill="#6C63FF" d="M49.831 42.102s-1.005 7.279 2.678 8.934c3.684 1.655 6.36 7.27 6.36 7.27l-3.012.661s-1.005 4.633 1.673 5.956c2.678 1.323 10.043 0 10.043 0s3.35-1.655.67-6.95C65.563 52.68 57.868 41.11 57.868 41.11s-4.02-4.302-8.037.992z"/>
            <ellipse cx="50.522" cy="27.25" fill="#FFC1C7" rx="1.631" ry="2.442"/>
            <circle cx="50.522" cy="27.25" r="1" fill="#F2F2F2"/>
            <circle cx="49.884" cy="28.733" r="1" fill="#F2F2F2" transform="rotate(-63.3 49.884 28.733)"/>
            <path fill="#5500D3" d="M83.963 3.477c-.028-1.148-.349-2.132-.81-2.668l-.365 1.455V.517c-.16-.1-.348-.145-.535-.128-.897.083-1.59 1.608-1.55 3.404.042 1.795.804 3.185 1.701 3.102.898-.084 1.6-1.615 1.559-3.418z"/>
            <path fill="#000" d="M83.778 4.274c-.382.087-.752.329-1.134.377-.382.048-.8-.14-1.04-.746-.131-.326-.196-.738-.306-1.095-.084-.292-.226-.563-.417-.796-.133.548-.192 1.113-.177 1.678.042 1.855.815 3.289 1.726 3.202.764-.071 1.381-1.198 1.535-2.65-.063.006-.125.016-.187.03z" opacity=".1"/>
            <path fill="#5500D3" d="M101.09 99.17c1.115-.48 1.945-1.183 2.28-1.843l-1.564.221 1.724-.681c.03-.194-.002-.392-.094-.566-.45-.832-2.23-.897-3.974-.144-1.743.753-2.792 2.036-2.342 2.878.45.842 2.224.887 3.97.134z"/>
            <path fill="#000" d="M100.132 99.3c-.245-.332-.611-.594-.81-.943-.197-.35-.192-.824.282-1.29.244-.242.616-.485.906-.727.242-.193.441-.434.584-.708-.57.087-1.125.25-1.651.485-1.73.761-2.77 2.058-2.324 2.91.377.705 1.681.865 3.113.448-.03-.06-.064-.119-.1-.175z" opacity=".1"/>
            <path fill="#5500D3" d="M10.548 109.752c1.116-.48 1.946-1.182 2.28-1.842l-1.563.22 1.724-.68c.03-.194-.002-.392-.094-.566-.45-.832-2.23-.897-3.974-.144-1.744.753-2.793 2.036-2.342 2.878.45.842 2.224.887 3.97.134z"/>
            <path fill="#5500D3" d="M9.59 109.883c-.244-.332-.61-.594-.808-.943-.198-.35-.193-.824.28-1.29.245-.242.616-.485.907-.727.242-.193.441-.435.584-.708-.57.087-1.126.25-1.652.485-1.73.76-2.77 2.058-2.323 2.909.376.706 1.68.866 3.113.449-.03-.06-.064-.119-.1-.175z" opacity=".1"/>
        </g>
        <g>
            <path fill="#7EB241" fill-rule="nonzero" d="M110 20.307C110 9.092 103.388 0 95.232 0H14.768C6.612 0 0 9.092 0 20.307c0 11.215 6.612 20.306 14.768 20.306l67.276-.177L97.518 59V40.34c7.18-1.54 12.477-10.04 12.482-20.033z" transform="translate(32 31)"/>
            <text fill="#FFF" font-family="Poppins-Medium, Poppins" font-size="11" font-weight="400" transform="translate(32 31)">
                <tspan x="10.215" y="17">Request </tspan> <tspan x="5.557" y="31">Approved</tspan>
            </text>
            <g transform="translate(32 31) translate(75.778 6.556)">
                <ellipse cx="13.037" cy="14.34" fill="#7EB241" rx="11.407" ry="8.604"/>
                <path fill="#FFF" fill-rule="nonzero" d="M25.26 12.702c0 7.015-5.656 12.7-12.63 12.7C5.653 25.403 0 19.717 0 12.702 0 5.686 5.655 0 12.63 0c3.35 0 6.562 1.338 8.93 3.72 2.369 2.382 3.7 5.613 3.7 8.982zm-14.09 6.723l9.369-9.422c.153-.153.239-.362.239-.58 0-.217-.086-.426-.24-.58l-1.152-1.15c-.153-.154-.36-.24-.576-.24-.216 0-.423.086-.575.24l-7.641 7.685-3.568-3.597c-.319-.319-.834-.319-1.153 0l-1.152 1.166c-.317.32-.317.839 0 1.16l5.297 5.325c.152.154.36.24.576.24.216 0 .424-.086.576-.24v-.007z"/>
            </g>
        </g>
    </g>
</svg>
